<svg xmlns="http://www.w3.org/2000/svg" viewBox="0 0 64 64" id="sql">
  <g>
    <path d="M12,18.52c1.19.27,1.5,1,1.5,1.65,0,1-.78,1.82-2.37,1.82s-2.41-.84-2.41-1.46A.53.53,0,0,1,9.27,20c.71,0,.52,1,1.85,1,.68,0,1.06-.38,1.06-.76s-.11-.49-.56-.6l-1.48-.38c-1.19-.3-1.41-1-1.41-1.57C8.73,16.44,9.91,16,11,16s2.23.57,2.23,1.34a.54.54,0,0,1-.6.52c-.61,0-.5-.85-1.72-.85-.61,0-.95.28-.95.68s.48.52.9.62ZM17.11,16A2.73,2.73,0,0,1,20,18.9a3.17,3.17,0,0,1-.8,2.22l.51.47a.33.33,0,0,1,.1.23.51.51,0,0,1-.45.49.47.47,0,0,1-.37-.17l-.51-.47a3,3,0,0,1-1.39.32C15,22,14.2,20.64,14.2,18.9A2.73,2.73,0,0,1,17.11,16Zm0,5a1.64,1.64,0,0,0,.52-.07l-.44-.42a.27.27,0,0,1-.11-.22.52.52,0,0,1,.45-.49.5.5,0,0,1,.38.17l.45.42a2.6,2.6,0,0,0,.34-1.42c0-1.1-.52-1.89-1.59-1.89s-1.6.79-1.6,1.89S15.87,20.93,17.11,20.93ZM21,16.65a.61.61,0,0,1,.65-.66.62.62,0,0,1,.66.66v4.1h2.19c.38,0,.68.19.68.55s-.3.55-.68.55H21.75c-.47,0-.77-.18-.77-.77ZM51,60H21a5,5,0,0,1-5-5V34H9a5,5,0,0,1-5-5,5.09,5.09,0,0,1,0-.69A1.06,1.06,0,0,1,4,28V16a4,4,0,0,1,4-4H26a4,4,0,0,1,4,4v6a4,4,0,0,1-4,4H18V55a3,3,0,0,0,3,3H51a3,3,0,0,0,3-3V49a1,1,0,0,1,2,0v6A5,5,0,0,1,51,60ZM9,26a3,3,0,0,0,0,6h7V26ZM8,14a2,2,0,0,0-2,2v9a5,5,0,0,1,3-1H26a2,2,0,0,0,2-2V16a2,2,0,0,0-2-2ZM36,54c-.32,0-.65,0-1,0a7.62,7.62,0,0,1-1-.11,10.68,10.68,0,0,1-2.83-.72A1.78,1.78,0,0,1,31,53C29.1,52.23,28,50.94,28,49.5v-15c0-2.57,3.44-4.5,8-4.5s8,1.93,8,4.5v15c0,1.44-1.1,2.73-3,3.55l-.22.09a11.09,11.09,0,0,1-2.9.73,7.26,7.26,0,0,1-.9.1C36.65,54,36.32,54,36,54Zm-6-4.5c0,.58.69,1.24,1.79,1.71l.11,0,.12,0a8.77,8.77,0,0,0,2.35.59,6.18,6.18,0,0,0,.8.08,11.5,11.5,0,0,0,1.66,0,6,6,0,0,0,.74-.07A9,9,0,0,0,40,51.3l.12,0,.11,0c1.1-.47,1.79-1.13,1.79-1.71v-2a7.37,7.37,0,0,1-.69.37A2,2,0,0,1,41,48l-.26.1a10.91,10.91,0,0,1-2.89.73,7.26,7.26,0,0,1-.9.1A15.7,15.7,0,0,1,35,49a7.62,7.62,0,0,1-1-.11,10.68,10.68,0,0,1-2.83-.72L31,48a2.16,2.16,0,0,1-.34-.17,5.52,5.52,0,0,1-.64-.34Zm0-5c0,.53.58,1.13,1.55,1.6l.22.1.12.06.13,0a8.77,8.77,0,0,0,2.35.59,6.18,6.18,0,0,0,.8.08,11.5,11.5,0,0,0,1.66,0,6,6,0,0,0,.74-.07A9,9,0,0,0,40,46.3l.14,0,.11,0,.17-.07c1-.5,1.6-1.1,1.6-1.63v-2a7.37,7.37,0,0,1-.69.37A2,2,0,0,1,41,43l-.26.1a10.91,10.91,0,0,1-2.89.73,7.26,7.26,0,0,1-.9.1A15.7,15.7,0,0,1,35,44a7.62,7.62,0,0,1-1-.11,10.68,10.68,0,0,1-2.83-.72L31,43a2.16,2.16,0,0,1-.34-.17,5.52,5.52,0,0,1-.64-.34Zm0-5c0,.53.58,1.13,1.55,1.6l.22.1.12.06.13,0a8.77,8.77,0,0,0,2.35.59,6.18,6.18,0,0,0,.8.08,11.5,11.5,0,0,0,1.66,0,6,6,0,0,0,.74-.07A9,9,0,0,0,40,41.3l.14,0,.11,0,.17-.07c1-.5,1.6-1.1,1.6-1.63v-2A11.46,11.46,0,0,1,36,39a11.46,11.46,0,0,1-6-1.46ZM36,32c-3.72,0-6,1.46-6,2.5S32.28,37,36,37s6-1.46,6-2.5S39.72,32,36,32ZM55,45a1,1,0,0,1-1-1V14.83a1,1,0,0,0-.29-.71L46,6.41V13a1,1,0,0,0,1,1h2a1,1,0,0,1,0,2H47a3,3,0,0,1-3-3V6H21a3,3,0,0,0-3,3,1,1,0,0,1-2,0,5,5,0,0,1,5-5H45.17a3,3,0,0,1,2.12.88l7.83,7.83A3,3,0,0,1,56,14.83V44A1,1,0,0,1,55,45ZM45,23H34a1,1,0,0,1,0-2H45a1,1,0,0,1,0,2Zm-5-6H34a1,1,0,0,1,0-2h6a1,1,0,0,1,0,2Z"></path>
  </g>
</svg>
